<?xml version="1.0" encoding="utf-8"?>
<!-- Generator: Adobe Illustrator 22.0.0, SVG Export Plug-In . SVG Version: 6.00 Build 0)  -->
<svg version="1.1" xmlns="http://www.w3.org/2000/svg" xmlns:xlink="http://www.w3.org/1999/xlink" x="0px" y="0px"
	 viewBox="0 0 1000 1000" style="enable-background:new 0 0 1000 1000;" xml:space="preserve">
<style type="text/css">
	.st0{display:none;}
	.st1{display:inline;}
	.st2{clip-path:url(#SVGID_2_);}
	.st3{fill:none;stroke:#007CAC;stroke-width:68;stroke-miterlimit:10;}
	.st4{fill:none;}
	.st5{opacity:6.000000e-02;}
	.st6{fill:#FFFFFF;}
	.st7{font-family:'Texta-Heavy';}
	.st8{font-size:24px;}
	.st9{fill:url(#SVGID_5_);}
	.st10{opacity:0.4;clip-path:url(#SVGID_7_);}
	.st11{fill:none;stroke:#FFFFFF;stroke-width:4;stroke-miterlimit:10;}
	.st12{fill:#002961;}
	.st13{fill:url(#SVGID_8_);}
	.st14{opacity:0.4;clip-path:url(#SVGID_10_);}
	.st15{opacity:0.1;}
	.st16{font-family:'TextaAlt-Medium';}
	.st17{font-size:22px;}
	.st18{fill:#007CAC;}
	.st19{font-family:'TextaAlt-Black';}
	.st20{font-size:59px;}
	.st21{fill:#231F20;}
	.st22{fill:url(#SVGID_15_);}
	.st23{fill:url(#SVGID_16_);}
	.st24{fill:url(#SVGID_17_);}
	.st25{fill:url(#SVGID_18_);}
	.st26{fill:url(#SVGID_19_);}
	.st27{fill:url(#SVGID_20_);}
	.st28{fill:url(#SVGID_21_);}
	.st29{fill:url(#SVGID_22_);}
	.st30{fill:url(#SVGID_23_);}
	.st31{fill:url(#SVGID_24_);}
	.st32{fill:url(#SVGID_25_);}
	.st33{font-family:'Texta-Black';}
	.st34{font-size:24.6459px;}
	.st35{fill:none;stroke:#000000;stroke-width:0.25;}
</style>
<g id="Actual_Logo" class="st0">
	<g class="st1">
		<g>
			<defs>
				<ellipse id="SVGID_1_" cx="504.8" cy="612.1" rx="221.9" ry="144.9"/>
			</defs>
			<clipPath id="SVGID_2_">
				<use xlink:href="#SVGID_1_"  style="overflow:visible;"/>
			</clipPath>
			<g class="st2">
				<ellipse class="st3" cx="504.5" cy="443" rx="248.3" ry="270.1"/>
				<path id="SVGID_x5F_3_x5F_" class="st4" d="M752.7,446c0,149.2-111.2,270.1-248.3,270.1c-137.1,0-248.3-120.9-248.3-270.1
					c0-149.2,111.2-270.1,248.3-270.1C641.6,175.9,752.7,296.8,752.7,446z"/>
				<text class="st5">				<textPath  xlink:href="#SVGID_x5F_3_x5F_" startOffset="100%">
<tspan  class="st21 st7 st8" style="letter-spacing:8;">RAISING  OUTSTANDING  LEADERS</tspan>				</textPath>
</text>
				<path id="SVGID_x5F_4_x5F_" class="st4" d="M752.7,443c0,149.2-111.2,270.1-248.3,270.1c-137.1,0-248.3-120.9-248.3-270.1
					c0-149.2,111.2-270.1,248.3-270.1C641.6,172.9,752.7,293.8,752.7,443z"/>
				<text class="st6 st7 st8">				<textPath  xlink:href="#SVGID_x5F_4_x5F_" startOffset="100%">
RAISING  OUTSTANDING  LEADERS				</textPath>
</text>
			</g>
		</g>
		<g>
			<linearGradient id="SVGID_5_" gradientUnits="userSpaceOnUse" x1="159.5659" y1="580.567" x2="850.0957" y2="580.567">
				<stop  offset="0" style="stop-color:#E7C7A4"/>
				<stop  offset="5.445407e-02" style="stop-color:#CEAB87"/>
				<stop  offset="0.1384" style="stop-color:#AC865F"/>
				<stop  offset="0.2052" style="stop-color:#976F47"/>
				<stop  offset="0.2462" style="stop-color:#8F673E"/>
				<stop  offset="0.7699" style="stop-color:#8F673E"/>
				<stop  offset="0.8082" style="stop-color:#976F47"/>
				<stop  offset="0.8707" style="stop-color:#AC865F"/>
				<stop  offset="0.9491" style="stop-color:#CEAB87"/>
				<stop  offset="1" style="stop-color:#E7C7A4"/>
			</linearGradient>
			<path class="st9" d="M793.5,676.9c-123-62.5-256.2-82-395.9-57.9c-106.3,18.4-176.8,56.5-177.5,56.9l0.2-0.1l25.4-79.9
				l-86.1-29.4c3.5-1.9,86-47.2,211.5-69.8c73.6-13.2,147.4-16.1,219.3-8.5c90.2,9.5,177.6,35.5,259.7,77.2L766,596L793.5,676.9z"/>
		</g>
		<g>
			<defs>
				<path id="SVGID_6_" d="M793.5,676.9c-123-62.5-256.2-82-395.9-57.9c-106.3,18.4-176.8,56.5-177.5,56.9l0.2-0.1l25.4-79.9
					l-86.1-29.4c3.5-1.9,86-47.2,211.5-69.8c73.6-13.2,147.4-16.1,219.3-8.5c90.2,9.5,177.6,35.5,259.7,77.2L766,596L793.5,676.9z"
					/>
			</defs>
			<clipPath id="SVGID_7_">
				<use xlink:href="#SVGID_6_"  style="overflow:visible;"/>
			</clipPath>
			<g class="st10">
				<path class="st11" d="M800,664c-126.2-64.1-262.8-84-406-59c-108.4,18.9-180.2,57.9-180.9,58.3l0.1-0.1l-46.6-83.9
					c3.4-1.9,83.9-46,207-68.2c72.2-13,144.6-15.8,215.2-8.4c88.5,9.3,174.1,34.8,254.7,75.7L800,664z"/>
			</g>
		</g>
		<path class="st12" d="M504.8,257.7c-77.3,0-146.4-26.9-192.4-69.2v288.2c0,106.3,86.1,192.4,192.4,192.4S697.2,583,697.2,476.7
			V188.5C651.3,230.8,582.1,257.7,504.8,257.7z"/>
		<g>
			<g>
				<linearGradient id="SVGID_8_" gradientUnits="userSpaceOnUse" x1="233.5752" y1="534.4752" x2="776.0869" y2="534.4752">
					<stop  offset="0" style="stop-color:#8F673E"/>
					<stop  offset="0.5" style="stop-color:#E8CCAF"/>
					<stop  offset="1" style="stop-color:#8F673E"/>
				</linearGradient>
				<path class="st13" d="M719.5,622.1c-91-46.3-189.6-60.8-292.9-43.1c-79.3,13.5-131.9,41.9-132.5,42.2l0.2-0.1l-60.7-109.3
					c2.7-1.5,68-37.3,166.5-55c57.7-10.4,115.6-12.6,172.1-6.7c70.9,7.5,139.5,27.8,204,60.6L719.5,622.1z"/>
			</g>
			<g>
				<defs>
					<path id="SVGID_9_" d="M719.5,622.1c-91-46.3-189.6-60.8-292.9-43.1c-79.3,13.5-131.9,41.9-132.5,42.2l0.2-0.1l-60.7-109.3
						c2.7-1.5,68-37.3,166.5-55c57.7-10.4,115.6-12.6,172.1-6.7c70.9,7.5,139.5,27.8,204,60.6L719.5,622.1z"/>
				</defs>
				<clipPath id="SVGID_10_">
					<use xlink:href="#SVGID_9_"  style="overflow:visible;"/>
				</clipPath>
				<g class="st14">
					<g>
						<path class="st6" d="M510,462.8c20.3,0,40.4,1,60.4,3.2c68.9,7.3,135.7,27.1,198.4,59l-42.1,82.9
							c-68.3-34.7-140.7-52.1-216-52.1c-28.9,0-58.3,2.6-88.1,7.7c-81.6,14.1-135.7,43.4-136.3,43.7l0.1-0.1l-45.2-81.3
							c2.6-1.5,65.7-36,161.5-53.3C438.7,466.1,474.5,462.8,510,462.8 M510,458.8v4V458.8L510,458.8c-35.7,0-72,3.3-107.9,9.7
							c-96.5,17.3-160.1,52.2-162.8,53.7l-3.5,1.9l1.9,3.5L283,609l3.4-1.9l1.9,3.5c0.5-0.3,54.3-29.3,135-43.3
							c29.4-5.1,58.8-7.7,87.4-7.7c74.6,0,146.7,17.4,214.2,51.7l3.6,1.8l1.8-3.6l42.1-82.9l1.8-3.6l-3.6-1.8
							c-63.2-32.1-130.4-52.1-199.8-59.4C550.8,459.9,530.4,458.8,510,458.8L510,458.8z"/>
					</g>
				</g>
			</g>
			<g>
				<path id="SVGID_x5F_11_x5F_" class="st4" d="M263.9,593.5c0,0,231.2-128.4,483.9,0"/>
				<text class="st15">				<textPath  xlink:href="#SVGID_x5F_11_x5F_" startOffset="0.366%">
<tspan  class="st21 st16 st17" style="letter-spacing:-7;">INTERNATIONAL SCHOOL</tspan>				</textPath>
</text>
				<path id="SVGID_x5F_12_x5F_" class="st4" d="M263.9,591.5c0,0,231.2-128.4,483.9,0"/>
				<text class="st6 st16 st17">				<textPath  xlink:href="#SVGID_x5F_12_x5F_" startOffset="0.366%">
INTERNATIONAL SCHOOL				</textPath>
</text>
			</g>
			<g>
				<path id="SVGID_x5F_13_x5F_" class="st4" d="M263.9,560.2c0,0,231.2-128.4,483.9,0"/>
				<text class="st15">				<textPath  xlink:href="#SVGID_x5F_13_x5F_" startOffset="0.366%">
<tspan  class="st21 st19 st20" style="letter-spacing:-7;">WATON</tspan>				</textPath>
</text>
				<path id="SVGID_x5F_14_x5F_" class="st4" d="M263.9,557.2c0,0,231.2-128.4,483.9,0"/>
				<text class="st18 st19 st20">				<textPath  xlink:href="#SVGID_x5F_14_x5F_" startOffset="0.366%">
WATON				</textPath>
</text>
			</g>
		</g>
		<path class="st6" d="M539,330.1v10.8h5.9c3.2,0,4,0.5,4,0.5c0.1,0.1,0.3,0.2,0.3,0.9c0,0.6-0.2,1.9-0.9,4.4l-17.5,56.8l-17.4-56.8
			c-0.9-3-1-4.1-1-4.5c0-0.4,0.1-0.6,0.4-0.8c0,0,0.8-0.6,4.2-0.6h5.7v-10.8h-39.2v10.8h2.5c3.4,0,4.5,0.5,4.9,0.8
			c1.5,1,2.6,2.8,3.4,5.3l3.8,11.9l-14.5,44.5l-17.4-56.6c-0.9-2.7-1-3.9-1-4.3c0-0.5,0.1-0.8,0.7-1.1c0.1,0,0.8-0.4,3.7-0.4h6.2
			v-10.8h-39.5v10.8h2.5c3.3,0,4.7,0.6,5.1,0.9c0.9,0.6,2.3,2.3,3.6,6.5l26.6,83h13.6l16.8-52.1l16.7,52.1H535l27.2-83.1
			c1.1-3.7,1.9-4.9,2.1-5.3c0.5-0.7,1.2-1.2,2-1.5c0.4-0.2,1.6-0.5,4-0.5l3.1,0.1v-10.8H539z"/>
		<g>
			<polygon class="st21" points="504.8,288.2 504.8,288.2 504.8,288.2 			"/>
			<polygon class="st21" points="504.8,288.2 504.8,288.2 504.8,288.2 			"/>
			<path class="st21" d="M528.3,229.3v-0.1V229.3C528.2,229.4,528.2,229.4,528.3,229.3z"/>
			<path class="st21" d="M528.3,229.3l0-0.1L528.3,229.3C528.3,229.3,528.3,229.3,528.3,229.3z"/>
			<path class="st21" d="M528.3,287.4v-0.1l-0.1,0.1C528.2,287.4,528.2,287.4,528.3,287.4z"/>
			<linearGradient id="SVGID_15_" gradientUnits="userSpaceOnUse" x1="505.1006" y1="231.7814" x2="501.5723" y2="198.2112">
				<stop  offset="0" style="stop-color:#39BFEE"/>
				<stop  offset="0.3724" style="stop-color:#27A9D9"/>
				<stop  offset="1" style="stop-color:#037DAE"/>
			</linearGradient>
			<path class="st22" d="M504.8,197.9l-23.4,31.3c6.7,0.5,14.6,0.9,23.4,0.9c7.3,0,15.2-0.2,23.4-0.8l0.1-0.1L504.8,197.9z"/>
			<linearGradient id="SVGID_16_" gradientUnits="userSpaceOnUse" x1="504.0861" y1="225.2177" x2="514.8751" y2="286.4054">
				<stop  offset="0" style="stop-color:#037DAE"/>
				<stop  offset="9.862626e-02" style="stop-color:#108DBD"/>
				<stop  offset="0.2772" style="stop-color:#22A3D3"/>
				<stop  offset="0.4721" style="stop-color:#2FB3E2"/>
				<stop  offset="0.6938" style="stop-color:#37BCEB"/>
				<stop  offset="1" style="stop-color:#39BFEE"/>
			</linearGradient>
			<path class="st23" d="M504.8,230.1c-8.8,0-16.8-0.4-23.4-0.9l23.4,59c0,0,0,0,0,0c0,0,0,0,0,0l23.4-58.8
				C520,230,512.2,230.2,504.8,230.1z"/>
			<linearGradient id="SVGID_17_" gradientUnits="userSpaceOnUse" x1="499.7407" y1="266.1233" x2="542.117" y2="256.34">
				<stop  offset="0" style="stop-color:#39BFEE"/>
				<stop  offset="0.2262" style="stop-color:#35BAE9"/>
				<stop  offset="0.4949" style="stop-color:#29ACDB"/>
				<stop  offset="0.7841" style="stop-color:#1694C4"/>
				<stop  offset="1" style="stop-color:#037DAE"/>
			</linearGradient>
			<path class="st24" d="M548.7,285l-20.4-55.7c0,0,0,0,0,0c0,0,0,0-0.1,0l-23.4,58.8c7.3,0,15.2-0.2,23.3-0.8l0.1-0.1v0.1
				C535,286.9,541.8,286.1,548.7,285z"/>
			<linearGradient id="SVGID_18_" gradientUnits="userSpaceOnUse" x1="504.7734" y1="287.249" x2="504.7734" y2="314.0581">
				<stop  offset="0" style="stop-color:#39BFEE"/>
				<stop  offset="0.3724" style="stop-color:#27A9D9"/>
				<stop  offset="1" style="stop-color:#037DAE"/>
			</linearGradient>
			<path class="st25" d="M504.8,288.2L504.8,288.2L504.8,288.2c-8.8,0-16.8-0.4-23.4-0.9v0l23.4,26.8l23.3-26.7
				C520,288,512.1,288.2,504.8,288.2z"/>
			<linearGradient id="SVGID_19_" gradientUnits="userSpaceOnUse" x1="517.7553" y1="192.1145" x2="535.8355" y2="232.7233">
				<stop  offset="0" style="stop-color:#1C849F"/>
				<stop  offset="1" style="stop-color:#0887BA"/>
			</linearGradient>
			<path class="st26" d="M528.3,213.4l-23.4-15.5l23.4,31.3l0,0.1c6.7-0.5,13.5-1.3,20.4-2.4v-0.1L528.3,213.4z"/>
			<linearGradient id="SVGID_20_" gradientUnits="userSpaceOnUse" x1="529.2539" y1="267.4692" x2="558.1108" y2="235.4203">
				<stop  offset="0" style="stop-color:#3284AB"/>
				<stop  offset="1" style="stop-color:#0B6089"/>
			</linearGradient>
			<path class="st27" d="M548.7,285v-58c-6.9,1.1-13.8,1.9-20.4,2.4L548.7,285z"/>
			<linearGradient id="SVGID_21_" gradientUnits="userSpaceOnUse" x1="548.7299" y1="284.9981" x2="501.8173" y2="307.8789">
				<stop  offset="0" style="stop-color:#3284AB"/>
				<stop  offset="1" style="stop-color:#0B6089"/>
			</linearGradient>
			<path class="st28" d="M528.3,287.4c0,0-0.1,0-0.1,0l-23.3,26.7l23.4-15.5l20.5-13.5C541.8,286.1,535,286.9,528.3,287.4z"/>
			<linearGradient id="SVGID_22_" gradientUnits="userSpaceOnUse" x1="480.0874" y1="230.0147" x2="485.6597" y2="194.8323">
				<stop  offset="0" style="stop-color:#1C849F"/>
				<stop  offset="1" style="stop-color:#0887BA"/>
			</linearGradient>
			<path class="st29" d="M481.4,213.4l-20.5,13.6v0.1c0,0,7.9,1.3,20.5,2.2l23.4-31.3L481.4,213.4z"/>
			<linearGradient id="SVGID_23_" gradientUnits="userSpaceOnUse" x1="446.8488" y1="274.0131" x2="481.6803" y2="229.4308">
				<stop  offset="0" style="stop-color:#3284AB"/>
				<stop  offset="1" style="stop-color:#0B6089"/>
			</linearGradient>
			<path class="st30" d="M460.9,227v58l20.5-55.8C468.9,228.3,460.9,227,460.9,227z"/>
			<linearGradient id="SVGID_24_" gradientUnits="userSpaceOnUse" x1="510.894" y1="273.1651" x2="470.2798" y2="256.7559">
				<stop  offset="0" style="stop-color:#39BFEE"/>
				<stop  offset="0.2262" style="stop-color:#35BAE9"/>
				<stop  offset="0.4949" style="stop-color:#29ACDB"/>
				<stop  offset="0.7841" style="stop-color:#1694C4"/>
				<stop  offset="1" style="stop-color:#037DAE"/>
			</linearGradient>
			<path class="st31" d="M481.4,229.2L460.9,285c0,0,7.9,1.3,20.5,2.2c6.7,0.5,14.6,0.9,23.4,0.9L481.4,229.2z"/>
			<linearGradient id="SVGID_25_" gradientUnits="userSpaceOnUse" x1="481.9746" y1="312.4598" x2="483.7823" y2="286.6095">
				<stop  offset="0" style="stop-color:#0B6089"/>
				<stop  offset="1" style="stop-color:#3284AB"/>
			</linearGradient>
			<path class="st32" d="M481.4,287.3L481.4,287.3c-12.5-0.9-20.5-2.2-20.5-2.2l20.5,13.5l23.4,15.5L481.4,287.3z"/>
		</g>
	</g>
</g>
<g id="Vector_Logo">
	<g>
		<g>
			<path id="SVGID_x5F_26_x5F_" class="st4" d="M748.5,444.4c0,147.1-109.6,266.3-244.8,266.3C368.5,710.7,259,591.5,259,444.4
				c0-147.1,109.6-266.3,244.8-266.3C638.9,178.1,748.5,297.3,748.5,444.4z"/>
			<text class="st21 st33 st34">			<textPath  xlink:href="#SVGID_x5F_26_x5F_" startOffset="100%">
RAISING  OUTSTANDING  LEADERS			</textPath>
</text>
			<path id="SVGID_x5F_27_x5F_" class="st4" d="M748.5,444.4c0,147.1-109.6,266.3-244.8,266.3C368.5,710.7,259,591.5,259,444.4
				c0-147.1,109.6-266.3,244.8-266.3C638.9,178.1,748.5,297.3,748.5,444.4z"/>
			<text class="st21 st33 st34">			<textPath  xlink:href="#SVGID_x5F_27_x5F_" startOffset="100%">
RAISING  OUTSTANDING  LEADERS			</textPath>
</text>
			<path id="SVGID_x5F_28_x5F_" class="st4" d="M748.5,444.4c0,147.1-109.6,266.3-244.8,266.3C368.5,710.7,259,591.5,259,444.4
				c0-147.1,109.6-266.3,244.8-266.3C638.9,178.1,748.5,297.3,748.5,444.4z"/>
			<text class="st35 st33 st34">			<textPath  xlink:href="#SVGID_x5F_28_x5F_" startOffset="100%">
RAISING  OUTSTANDING  LEADERS			</textPath>
</text>
		</g>
		<g>
			<polygon class="st21" points="519.4,536.6 523.5,536.7 521.6,531.2 			"/>
			<polygon class="st21" points="473.9,493.4 470.3,506.5 479.1,506 			"/>
			<path class="st21" d="M439.7,538.3c0.4-0.4,0.5-0.9,0.4-1.6c-0.1-0.7-0.4-1.2-0.9-1.5c-0.5-0.3-1.1-0.4-1.8-0.3l-2.8,0.4l0.5,4.1
				l2.8-0.4C438.8,539,439.4,538.7,439.7,538.3z"/>
			<polygon class="st21" points="462.8,538.3 466.8,538 464.4,532.7 			"/>
			<path class="st21" d="M535.8,511.5c2.6,0.1,4.9-0.7,6.7-2.4c1.9-1.8,2.9-4.1,3-7.1c0.2-3-0.6-5.4-2.2-7.4s-3.8-3-6.4-3.1
				c-2.6-0.1-4.8,0.7-6.7,2.4c-1.8,1.8-2.8,4.1-3,7.1c-0.2,3,0.6,5.4,2.2,7.4C531,510.3,533.2,511.4,535.8,511.5z"/>
			<path class="st21" d="M600,547.1c1.1,0.2,2.1,0,3-0.7c0.9-0.7,1.4-1.6,1.6-2.8c0.2-1.2,0-2.3-0.5-3.2c-0.6-0.9-1.4-1.5-2.5-1.7
				c-1.1-0.2-2.1,0-2.9,0.7c-0.9,0.7-1.4,1.6-1.6,2.8c-0.2,1.2,0,2.3,0.5,3.2C598.1,546.4,598.9,546.9,600,547.1z"/>
			<path class="st21" d="M587.2,536.3c-1.1-0.2-2.1,0.1-2.9,0.8c-0.8,0.7-1.4,1.6-1.5,2.9c-0.2,1.2,0,2.3,0.6,3.2
				c0.6,0.9,1.4,1.4,2.5,1.6c1.1,0.2,2.1-0.1,3-0.8c0.8-0.7,1.4-1.6,1.5-2.9c0.2-1.2,0-2.3-0.6-3.2
				C589.2,537,588.3,536.5,587.2,536.3z"/>
			<path class="st21" d="M493.4,530.5c-1.1,0-2,0.5-2.7,1.3c-0.7,0.8-1,1.9-1,3.1c0,1.2,0.4,2.2,1.2,3c0.8,0.8,1.7,1.2,2.8,1.1
				c1.1,0,2.1-0.5,2.8-1.3c0.7-0.8,1-1.9,1-3.1c0-1.2-0.4-2.3-1.2-3C495.5,530.9,494.6,530.5,493.4,530.5z"/>
			<path class="st21" d="M761.8,528c0.1-0.3,0.3-0.6,0.5-1c0.2-0.4,0.3-0.7,0.5-1.2c-0.5-0.3-0.9-0.5-1.4-0.8
				c-60.1-29.8-123.1-50-190-57.7c-15.7-1.8-31.4-2.9-47.1-3.3c-19.1-0.5-38.2-0.1-57.3,1.2c-19,1.4-37.8,3.6-56.6,6.7
				c-27.4,4.6-54.4,10.9-80.9,19.2c-28,8.7-55.4,19.1-81.6,32.3c-1.4,0.7-2.8,1.5-4.3,2.3c0.7,1.3,1.2,2.4,1.9,3.7
				c-28.5,10.2-56.2,21.5-83.3,35.7c6.3,2.1,12,4.1,17.7,6c23.6-11.5,47.7-21.2,72.3-29.8c0.3,0.6,0.6,1,0.9,1.6
				c-24,8.4-47.5,17.8-70.7,29.1c21.9,7.5,43.3,14.8,64.9,22.2c-6.2,19.5-12.3,38.9-18.6,58.6c22.4-10.4,44.9-19,67.9-26.5
				c23-7.5,46.3-13.8,70-18.9c0.5,0.5,0.9,1,1.4,1.6c-48.4,10.6-95.2,25.5-140.1,46.2c-1.8,5.8-3.7,11.6-5.6,17.8
				c24-12.2,48.5-21.8,73.3-30.3C351,706.6,419.5,743.2,504.7,743c85.3-0.2,153.6-37.1,208.6-101c25.3,8.9,50.1,19.7,74.7,32.1
				c-2.2-6.4-4.2-12.2-6.1-18c-44.9-21.7-91.5-37.9-140.3-48.5c0.6-0.7,1-1.1,1.5-1.6c47.8,10.4,93.6,26.4,138,47.6
				c-6.8-20.1-13.5-39.7-20.2-59.4c21-7.6,41.9-15.2,63.2-22.9c-22.9-11.1-45.8-20.7-69.4-29.3c0.4-0.7,0.6-1.1,0.9-1.6
				c24.2,8.8,47.8,18.8,71,30.1c5.6-2,11.3-4.1,17-6.2c0-0.2,0.1-0.5,0.1-0.7c-13.5-6.2-26.9-12.7-40.5-18.6
				C789.5,539,775.6,533.6,761.8,528z M610.6,538.2l2.6,0.5l-2.2,10.5l6,1.2l-0.5,2.3l-8.6-1.8L610.6,538.2z M594.3,541.7
				c0.3-1.9,1.2-3.3,2.7-4.4c1.4-1.1,3.1-1.4,5-1.1c1.9,0.4,3.4,1.3,4.3,2.8c1,1.5,1.3,3.2,0.9,5.1c-0.3,1.9-1.2,3.4-2.7,4.4
				c-1.4,1.1-3.1,1.4-5,1.1c-1.9-0.3-3.3-1.3-4.3-2.8C594.3,545.3,594,543.6,594.3,541.7z M561.3,485.6l6.5,0.8l14,22l2.6-19.8
				l8.3,1.1l-4.5,34.6l-6.5-0.8l-14-22.3l-2.6,20.2l-8.3-1.1L561.3,485.6z M593.1,541.5c-0.3,1.9-1.1,3.4-2.6,4.5
				c-1.4,1.1-3.1,1.5-5,1.2c-1.9-0.3-3.4-1.2-4.4-2.7c-1-1.5-1.4-3.2-1.1-5.1c0.3-1.9,1.1-3.4,2.6-4.5c1.4-1.1,3.1-1.5,5-1.2
				c1.9,0.3,3.4,1.2,4.4,2.7C593,538,593.4,539.6,593.1,541.5z M569.3,539.3l-0.7,5.4l-2.6-0.3l1.6-12.9l2.6,0.3l-0.7,5.4l5.9,0.7
				l0.7-5.4l2.6,0.3l-1.6,12.9l-2.6-0.3l0.7-5.4L569.3,539.3z M561.5,530.5c0.9,0.1,1.7,0.3,2.4,0.6c0.7,0.3,1.2,0.7,1.4,0.9
				l0.4,0.5l-1.7,1.9c-0.1-0.1-0.2-0.2-0.3-0.3c-0.1-0.1-0.4-0.3-0.9-0.6c-0.5-0.2-1-0.4-1.5-0.5c-1.2-0.1-2.1,0.2-2.9,0.9
				c-0.8,0.7-1.3,1.7-1.4,2.9c-0.1,1.2,0.1,2.3,0.8,3.2c0.7,0.9,1.6,1.4,2.7,1.5c0.5,0.1,1.1,0,1.6-0.1c0.5-0.1,0.9-0.3,1.1-0.5
				l0.3-0.3l1.3,2.2l-0.2,0.2c-0.1,0.1-0.3,0.2-0.5,0.3c-0.3,0.2-0.6,0.3-0.9,0.4c-0.3,0.1-0.7,0.2-1.3,0.3c-0.5,0.1-1.1,0.1-1.6,0
				c-2-0.2-3.5-1-4.6-2.4c-1.1-1.4-1.5-3.1-1.3-5c0.2-1.9,1-3.5,2.3-4.6C557.8,530.8,559.5,530.3,561.5,530.5z M518.5,500.5
				c0.3-5.1,2.2-9.3,5.7-12.6c3.5-3.3,7.9-4.9,13.1-4.6c5.2,0.3,9.4,2.3,12.6,6c3.2,3.7,4.6,8.1,4.4,13.2c-0.3,5.1-2.2,9.3-5.8,12.6
				c-3.6,3.4-8,4.9-13.2,4.6c-5.2-0.3-9.4-2.3-12.5-6C519.6,510,518.2,505.6,518.5,500.5z M546.8,533.8c0.3,0.3,1,0.6,1.9,0.9
				c1.5,0.5,2.6,1.2,3.3,1.8c0.7,0.7,1,1.5,0.9,2.6c-0.1,1.2-0.6,2.1-1.5,2.8c-0.9,0.7-2.1,1-3.7,0.9c-1-0.1-2-0.3-2.8-0.6
				c-0.8-0.3-1.4-0.7-1.7-1l-0.5-0.5l1.6-1.9l0.5,0.4c0.2,0.2,0.6,0.4,1.2,0.7c0.6,0.3,1.2,0.4,1.8,0.5c1.3,0.1,2-0.3,2.1-1.3
				c0-0.4-0.1-0.8-0.5-1.1c-0.3-0.3-1-0.6-2-1c-1.4-0.5-2.5-1.1-3.1-1.8c-0.6-0.7-0.9-1.5-0.9-2.5c0.1-1.2,0.6-2.1,1.5-2.7
				c0.9-0.6,2.1-0.9,3.7-0.8c1,0.1,1.9,0.3,2.6,0.5c0.8,0.3,1.3,0.6,1.5,0.8l0.4,0.4l-1.6,2c-0.1-0.1-0.2-0.2-0.4-0.3
				c-0.2-0.1-0.5-0.3-1.1-0.6s-1.1-0.4-1.7-0.4c-1.3-0.1-2,0.3-2,1.2C546.3,533.3,546.4,533.6,546.8,533.8z M537.8,539.6l-0.1,2.3
				l-8.7-0.4l0.6-13l2.6,0.1l-0.5,10.7L537.8,539.6z M527.9,541.4l-2.8-0.1l-0.9-2.5l-5.6-0.1l-1,2.5l-2.8-0.1l5.5-12.9l2.8,0.1
				L527.9,541.4z M516.9,483.1l0.1,7.3l-9.8,0.1l0.2,27.6l-8.4,0.1l-0.3-27.6l-9.8,0.1l-0.1-7.3L516.9,483.1z M513.7,528.1v13h-2
				l-6.9-8.4v8.4h-2.6v-13h2l6.9,8.4v-8.4H513.7z M500.2,534.6c0,1.9-0.5,3.5-1.7,4.9c-1.2,1.3-2.8,2-4.7,2.1
				c-1.9,0-3.5-0.6-4.8-1.8c-1.3-1.3-1.9-2.9-2-4.8c-0.1-1.9,0.5-3.5,1.7-4.9c1.2-1.3,2.8-2,4.7-2.1c2-0.1,3.6,0.6,4.8,1.8
				C499.4,531.1,500.1,532.7,500.2,534.6z M468.8,484.6l9.2-0.6l15.5,34l-9.1,0.6l-2.5-6.1l-13.4,0.8l-1.8,6.4l-9.1,0.6L468.8,484.6
				z M485.2,541.6l-2.6,0.1l-0.6-13l2.6-0.1L485.2,541.6z M476.9,542l-2.6,0.2l-0.6-10.7l-3.9,0.2l-0.1-2.3l10.3-0.6l0.1,2.3
				l-3.9,0.2L476.9,542z M471.7,542.3l-2.8,0.2l-1.1-2.4l-5.6,0.4l-0.7,2.6l-2.8,0.2l4.1-13.4l2.7-0.2L471.7,542.3z M448.7,544.4
				l-2.6,0.3l-1.4-12.9l2-0.2l7.7,7.6l-0.9-8.3l2.6-0.3l1.4,12.9l-2,0.2l-7.7-7.7L448.7,544.4z M421.3,489.8l6.8,17.8l3.3-19.1
				l6.2-0.8l8.2,17.7l2.1-19l9.2-1.2l-5.6,35.9l-6.5,0.8l-8.6-18.6l-3.2,20.2l-6.5,0.8L412.1,491L421.3,489.8z M436.1,545.9
				l-2.6,0.3l-1.7-12.9l5.5-0.7c1.5-0.2,2.7,0,3.7,0.7c1,0.7,1.6,1.7,1.8,3c0.1,0.9,0,1.8-0.4,2.5c-0.4,0.7-0.9,1.3-1.7,1.8l0,0.2
				l3.5,3.9l0,0.3l-2.9,0.4l-3.5-3.9l-2.5,0.3L436.1,545.9z M423.7,540l5.6-0.9l0.3,2.1l-5.6,0.9l0.5,3.2l6.7-1l0.3,2.3l-9.3,1.4
				l-1.9-12.9l9.3-1.4l0.3,2.3l-6.7,1L423.7,540z M418.4,535.4l0.4,2.3l-3.8,0.7l1.8,10.6l-2.6,0.4l-1.8-10.6l-3.8,0.7l-0.4-2.3
				L418.4,535.4z M396.9,539.3l8.3,6.9l-1.6-8.2l2.6-0.5l2.5,12.8l-2,0.4l-8.4-7l1.6,8.3l-2.6,0.5l-2.5-12.8L396.9,539.3z
				 M392,540.3l2.7,12.7l-2.6,0.5l-2.7-12.7L392,540.3z M652.6,623.5c16.6,4.8,33.3,9.6,50.3,14.5c-97.6,121-285.5,132.2-396.5,1.3
				c17-5.4,34-10.1,51.1-14.1c41.5,39.1,90.2,61.1,147.6,60.8C562.5,685.7,611,663.3,652.6,623.5z M369.6,622.4
				c3.7-0.8,7.2-1.5,10.5-2.1c36.4,30.5,78,46.3,125.3,46c47.2-0.3,88.6-16.5,124.6-47.3c3.2,0.7,6.7,1.4,10.3,2.1
				C568.7,690.3,451,697.7,369.6,622.4z M366,591.5c45.3-13.3,91.3-20.6,138.4-21c47.2-0.4,93.3,6.2,138.5,20.2
				C573.9,676.7,438.2,679.2,366,591.5z M721.2,607.4c-1.5-0.8-3-1.5-4.4-2.2c-36.4-17.8-74.3-31.1-114-39.4
				c-16.6-3.5-33.4-6.1-50.3-7.8c-22.4-2.2-44.9-3-67.4-1.9c-64.9,3.1-127,17.8-186.3,44.6c-3.5,1.6-6.9,3.3-10.4,5
				c-0.3-0.5-0.5-0.9-0.9-1.5c2.1-1,4-2.1,6-3c27.3-13,55.7-22.9,84.9-30.6c20.9-5.5,42-9.6,63.4-12.5c26.9-3.6,53.8-4.9,80.9-3.9
				c53.2,1.9,104.6,12.6,154.3,31.7c14.7,5.7,29.2,12,43.3,19.1c0.5,0.3,1,0.5,1.7,0.8C721.7,606.3,721.5,606.8,721.2,607.4z"/>
			<path class="st21" d="M287,504.1c49.1-19.2,99.8-31.8,152.2-38c18.7-2.2,37.5-3.6,56.3-4c27.1-0.6,54,0.7,80.9,4
				c18.6,2.3,37,5.5,55.2,9.8c45.4,10.6,88.9,26.7,130.6,47.5c0.4,0.2,0.9,0.4,1.5,0.6c2.4-4.7,4.7-9.3,7.1-14
				c-25-12.7-50.5-23.5-76.9-32.5c0-95,0-189.9,0-285.1c-42,37.4-91.4,57.2-146.3,65.2c0-9.4,0-18.4,0-27.5
				c-14.5-9.6-29-19.2-43.4-28.7c-14.6,9.6-29,19.2-43.4,28.7c0,4.7,0,9.2,0,13.7c0,4.5,0,9,0,13.8c-55.1-8.1-104.5-27.9-146.5-65.3
				c0,95.6,0,190.8,0,286c-27.1,9.1-53.5,19.4-78.9,32.8c2.5,4.5,4.8,8.7,7.3,13.1C257.2,516.4,271.9,509.9,287,504.1z M324.5,213.8
				c19.9,15,41.5,26.8,64.6,35.7c23.1,8.9,46.9,14.9,71.6,18.2c0,6.7,0,13.3,0,19.9c14.5,9.6,28.9,19.1,43.4,28.7
				c14.4-9.6,28.9-19.1,43.4-28.7c0-6.6,0-13.1,0-19.9c24.6-3.3,48.5-9.2,71.6-18.2c23.1-9,44.7-20.7,64.7-35.8
				c0,86.9,0,173.6,0,260.3c-119.8-37.5-239.6-35-359.3,0.9C324.5,388,324.5,301.1,324.5,213.8z"/>
			<path class="st21" d="M520.9,431.7c4.7,0,9.1,0,13.6,0c0.2-0.6,0.5-1.2,0.6-1.7c5.4-16.6,10.8-33.2,16.3-49.7
				c3.6-10.9,7.1-21.7,10.7-32.6c1.3-4,2.7-4.9,7-5c1.1,0,2.1,0,3.3,0c0-3.7,0-7.1,0-10.7c-11.3,0-22.6,0-33.9,0c0,3.6,0,7,0,10.9
				c3.3,0,6.6,0,9.7,0c0.5,2.1-16.2,58.1-18,60.7c-6-20-12.4-39.9-18.2-60c3.7-1.5,7.1-0.5,10.5-1c0-3.5,0-7,0-10.5
				c-13,0-25.8,0-38.6,0c0,3.6,0,7.1,0,10.7c1.3,0,2.4,0,3.5,0c3.1-0.1,5.2,1.4,6.3,4.3c0.3,0.6,0.5,1.3,0.7,1.9
				c1.1,3.3,2.2,6.6,3.2,10c0.3,0.9,0.3,1.9,0,2.8c-3.5,11-7.1,22-10.7,33c-1,2.9-1.9,5.9-2.9,9c-0.2-0.4-0.3-0.6-0.3-0.7
				c-5.8-18.7-11.6-37.5-17.3-56.2c-0.3-1-0.4-2.2-0.6-3.8c3.7,0,7,0,10.4,0c0-3.9,0-7.4,0-10.9c-13,0-25.9,0-38.9,0
				c0,3.6,0,7,0,10.5c0.5,0.1,0.8,0.1,1.1,0.1c7,0.2,7.8,0.8,10,7.4c0,0.1,0,0.1,0,0.2c7.4,23.1,14.9,46.3,22.3,69.4
				c1.3,4,2.6,8,3.9,12.1c4.6,0,9,0,13.6,0c2.8-8.5,5.5-17,8.2-25.4c2.7-8.4,5.4-16.8,8.1-25.1c3,8.5,5.7,16.9,8.4,25.3
				C515.5,415,518.2,423.4,520.9,431.7z"/>
			<path class="st21" d="M435.3,539.4l-0.5-4.1l2.8-0.4c0.7-0.1,1.3,0,1.8,0.3c0.5,0.3,0.8,0.8,0.9,1.5c0.1,0.7-0.1,1.2-0.4,1.6
				c-0.4,0.4-0.9,0.7-1.6,0.7L435.3,539.4z"/>
		</g>
	</g>
</g>
</svg>
